<?xml version="1.0" encoding="iso-8859-1"?>
<!-- Generator: Adobe Illustrator 19.0.0, SVG Export Plug-In . SVG Version: 6.00 Build 0)  -->
<svg version="1.1" id="Capa_1" xmlns="http://www.w3.org/2000/svg" xmlns:xlink="http://www.w3.org/1999/xlink" x="0px" y="0px"
	 viewBox="0 0 512 512" style="enable-background:new 0 0 512 512;" xml:space="preserve">
<path style="fill:#ECF0F1;" d="M475.733,503.467H36.267c-15.317,0-27.733-12.416-27.733-27.733v-364.8h494.933v364.8
	C503.467,491.051,491.051,503.467,475.733,503.467z"/>
<path style="fill:#687492;" d="M503.467,110.933H8.533V36.267c0-15.317,12.416-27.733,27.733-27.733h439.467
	c15.317,0,27.733,12.416,27.733,27.733V110.933z"/>
<rect x="42.667" y="42.667" style="fill:#E64C3C;" width="34.133" height="34.133"/>
<rect x="110.933" y="42.667" style="fill:#F0C419;" width="34.133" height="34.133"/>
<rect x="179.2" y="42.667" style="fill:#24AE5F;" width="34.133" height="34.133"/>
<g>
	<path style="fill:#B1BEC6;" d="M196.267,392.533H51.2c-4.71,0-8.533-3.823-8.533-8.533s3.823-8.533,8.533-8.533h145.067
		c4.71,0,8.533,3.823,8.533,8.533S200.977,392.533,196.267,392.533z"/>
	<path style="fill:#B1BEC6;" d="M170.667,358.4H51.2c-4.71,0-8.533-3.823-8.533-8.533c0-4.71,3.823-8.533,8.533-8.533h119.467
		c4.71,0,8.533,3.823,8.533,8.533C179.2,354.577,175.377,358.4,170.667,358.4z"/>
	<path style="fill:#B1BEC6;" d="M221.867,426.667H51.2c-4.71,0-8.533-3.823-8.533-8.533S46.49,409.6,51.2,409.6h170.667
		c4.71,0,8.533,3.823,8.533,8.533S226.577,426.667,221.867,426.667z"/>
	<path style="fill:#B1BEC6;" d="M221.867,460.8H51.2c-4.71,0-8.533-3.823-8.533-8.533s3.823-8.533,8.533-8.533h170.667
		c4.71,0,8.533,3.823,8.533,8.533S226.577,460.8,221.867,460.8z"/>
</g>
<rect x="273.067" y="341.333" style="fill:#F0C419;" width="187.733" height="119.467"/>
<path style="fill:#FFFFFF;" d="M432.7,403.567l-34.133-34.133c-3.337-3.337-8.73-3.337-12.066,0l-28.1,28.1L347.366,386.5
	c-3.337-3.337-8.73-3.337-12.066,0l-34.133,34.133c-3.337,3.337-3.337,8.73,0,12.066c1.664,1.664,3.849,2.5,6.033,2.5
	s4.369-0.836,6.033-2.5l28.1-28.1l28.1,28.1c1.664,1.664,3.849,2.5,6.033,2.5s4.369-0.836,6.033-2.5
	c3.337-3.337,3.337-8.73,0-12.066L370.466,409.6l22.067-22.067l28.1,28.1c1.664,1.664,3.849,2.5,6.033,2.5s4.369-0.836,6.033-2.5
	C436.036,412.297,436.036,406.903,432.7,403.567z"/>
<g>
	<path style="fill:#B1BEC6;" d="M341.333,162.133H170.667c-4.71,0-8.533-3.823-8.533-8.533s3.823-8.533,8.533-8.533h170.667
		c4.71,0,8.533,3.823,8.533,8.533S346.044,162.133,341.333,162.133z"/>
	<path style="fill:#B1BEC6;" d="M384,196.267H128c-4.71,0-8.533-3.823-8.533-8.533c0-4.71,3.823-8.533,8.533-8.533h256
		c4.71,0,8.533,3.823,8.533,8.533C392.533,192.444,388.71,196.267,384,196.267z"/>
</g>
<path style="fill:#4482C3;" d="M315.733,256H196.267c-9.429,0-17.067-7.637-17.067-17.067l0,0c0-9.429,7.637-17.067,17.067-17.067
	h119.467c9.429,0,17.067,7.637,17.067,17.067l0,0C332.8,248.363,325.163,256,315.733,256z"/>
<rect x="8.533" y="290.133" style="fill:#B1BEC6;" width="494.933" height="17.067"/>
<g>
	<path style="fill:#611C90;" d="M196.267,392.533H51.2c-4.71,0-8.533-3.814-8.533-8.533c0-4.719,3.823-8.533,8.533-8.533h145.067
		c4.71,0,8.533,3.814,8.533,8.533C204.8,388.719,200.977,392.533,196.267,392.533z"/>
	<path style="fill:#611C90;" d="M170.667,358.4H51.2c-4.71,0-8.533-3.814-8.533-8.533c0-4.719,3.823-8.533,8.533-8.533h119.467
		c4.71,0,8.533,3.814,8.533,8.533C179.2,354.586,175.377,358.4,170.667,358.4z"/>
	<path style="fill:#611C90;" d="M221.867,426.667H51.2c-4.71,0-8.533-3.814-8.533-8.533c0-4.719,3.823-8.533,8.533-8.533h170.667
		c4.71,0,8.533,3.814,8.533,8.533C230.4,422.852,226.577,426.667,221.867,426.667z"/>
	<path style="fill:#611C90;" d="M221.867,460.8H51.2c-4.71,0-8.533-3.814-8.533-8.533c0-4.719,3.823-8.533,8.533-8.533h170.667
		c4.71,0,8.533,3.814,8.533,8.533C230.4,456.986,226.577,460.8,221.867,460.8z"/>
	<path style="fill:#611C90;" d="M473.6,512H38.4C17.229,512,0,494.771,0,473.6V38.4C0,17.229,17.229,0,38.4,0h435.2
		C494.771,0,512,17.229,512,38.4v435.2C512,494.771,494.771,512,473.6,512z M38.4,17.067c-11.759,0-21.333,9.574-21.333,21.333
		v435.2c0,11.767,9.574,21.333,21.333,21.333h435.2c11.767,0,21.333-9.566,21.333-21.333V38.4c0-11.759-9.566-21.333-21.333-21.333
		H38.4z"/>
	<path style="fill:#611C90;" d="M76.8,85.333H42.667c-4.71,0-8.533-3.823-8.533-8.533V42.667c0-4.71,3.823-8.533,8.533-8.533H76.8
		c4.71,0,8.533,3.823,8.533,8.533V76.8C85.333,81.51,81.51,85.333,76.8,85.333z M51.2,68.267h17.067V51.2H51.2V68.267z"/>
	<path style="fill:#611C90;" d="M145.067,85.333h-34.133c-4.71,0-8.533-3.823-8.533-8.533V42.667c0-4.71,3.823-8.533,8.533-8.533
		h34.133c4.71,0,8.533,3.823,8.533,8.533V76.8C153.6,81.51,149.777,85.333,145.067,85.333z M119.467,68.267h17.067V51.2h-17.067
		V68.267z"/>
	<path style="fill:#611C90;" d="M213.333,85.333H179.2c-4.71,0-8.533-3.823-8.533-8.533V42.667c0-4.71,3.823-8.533,8.533-8.533
		h34.133c4.71,0,8.533,3.823,8.533,8.533V76.8C221.867,81.51,218.044,85.333,213.333,85.333z M187.733,68.267H204.8V51.2h-17.067
		V68.267z"/>
	<path style="fill:#611C90;" d="M503.467,119.467H8.533c-4.71,0-8.533-3.823-8.533-8.533V38.4C0,17.229,17.229,0,38.4,0h435.2
		C494.771,0,512,17.229,512,38.4v72.533C512,115.644,508.186,119.467,503.467,119.467z M17.067,102.4h477.867v-64
		c0-11.759-9.566-21.333-21.333-21.333H38.4c-11.759,0-21.333,9.574-21.333,21.333V102.4z"/>
	<path style="fill:#611C90;" d="M472.047,512H39.953C17.929,512,0,494.071,0,472.047v-173.38c0-4.719,3.823-8.533,8.533-8.533
		h494.933c4.719,0,8.533,3.814,8.533,8.533v173.38C512,494.071,494.071,512,472.047,512z M17.067,307.2v164.847
		c0,12.621,10.266,22.886,22.886,22.886h432.094c12.621,0,22.886-10.266,22.886-22.886V307.2H17.067z"/>
	<path style="fill:#611C90;" d="M460.8,469.333H273.067c-4.719,0-8.533-3.814-8.533-8.533V341.333c0-4.719,3.814-8.533,8.533-8.533
		H460.8c4.719,0,8.533,3.814,8.533,8.533V460.8C469.333,465.519,465.519,469.333,460.8,469.333z M281.6,452.267h170.667v-102.4
		H281.6V452.267z"/>
	<path style="fill:#611C90;" d="M307.2,435.2c-2.185,0-4.369-0.836-6.033-2.5c-3.337-3.337-3.337-8.73,0-12.066L335.3,386.5
		c3.337-3.337,8.73-3.337,12.066,0s3.337,8.73,0,12.066L313.233,432.7C311.569,434.364,309.385,435.2,307.2,435.2z"/>
	<path style="fill:#611C90;" d="M375.467,435.2c-2.185,0-4.369-0.836-6.033-2.5L335.3,398.566c-3.337-3.337-3.337-8.73,0-12.066
		c3.337-3.337,8.73-3.337,12.066,0l34.133,34.133c3.337,3.337,3.337,8.73,0,12.066C379.836,434.364,377.651,435.2,375.467,435.2z"/>
	<path style="fill:#611C90;" d="M358.4,418.133c-2.185,0-4.369-0.836-6.033-2.5c-3.337-3.337-3.337-8.73,0-12.066l34.133-34.133
		c3.337-3.337,8.73-3.337,12.066,0c3.337,3.337,3.337,8.73,0,12.066l-34.133,34.133C362.769,417.297,360.585,418.133,358.4,418.133z
		"/>
	<path style="fill:#611C90;" d="M426.667,418.133c-2.185,0-4.369-0.836-6.033-2.5L386.5,381.5c-3.337-3.337-3.337-8.73,0-12.066
		c3.337-3.337,8.73-3.337,12.066,0l34.133,34.133c3.337,3.337,3.337,8.73,0,12.066C431.036,417.297,428.851,418.133,426.667,418.133
		z"/>
	<path style="fill:#611C90;" d="M341.333,162.133H170.667c-4.71,0-8.533-3.823-8.533-8.533s3.823-8.533,8.533-8.533h170.667
		c4.719,0,8.533,3.823,8.533,8.533S346.052,162.133,341.333,162.133z"/>
	<path style="fill:#611C90;" d="M384,196.267H128c-4.71,0-8.533-3.823-8.533-8.533c0-4.71,3.823-8.533,8.533-8.533h256
		c4.719,0,8.533,3.823,8.533,8.533C392.533,192.444,388.719,196.267,384,196.267z"/>
	<path style="fill:#611C90;" d="M315.733,264.533H196.267c-14.114,0-25.6-11.486-25.6-25.6c0-14.114,11.486-25.6,25.6-25.6h119.467
		c14.114,0,25.6,11.486,25.6,25.6C341.333,253.047,329.847,264.533,315.733,264.533z M196.267,230.4
		c-4.702,0-8.533,3.831-8.533,8.533s3.831,8.533,8.533,8.533h119.467c4.71,0,8.533-3.831,8.533-8.533s-3.823-8.533-8.533-8.533
		H196.267z"/>
</g>
<g>
</g>
<g>
</g>
<g>
</g>
<g>
</g>
<g>
</g>
<g>
</g>
<g>
</g>
<g>
</g>
<g>
</g>
<g>
</g>
<g>
</g>
<g>
</g>
<g>
</g>
<g>
</g>
<g>
</g>
</svg>
